<?xml version="1.0" encoding="utf-8"?>
<!-- Generator: Adobe Illustrator 26.5.0, SVG Export Plug-In . SVG Version: 6.00 Build 0)  -->
<svg version="1.1" id="Layer_1" xmlns="http://www.w3.org/2000/svg" xmlns:xlink="http://www.w3.org/1999/xlink" x="0px" y="0px"
	 viewBox="0 0 1191.1 320.08" style="enable-background:new 0 0 1191.1 320.08;" xml:space="preserve">
<style type="text/css">
	.st0{fill:#FFFFFF;}
	.st1{font-family:'BritannicBold';}
	.st2{font-size:139.9543px;}
	.st3{fill:#FFFFFF;stroke:#000000;stroke-miterlimit:10;}
	.st4{fill:#14BF98;stroke:#000000;stroke-miterlimit:10;}
</style>
<text transform="matrix(0.9679 0 0 1 445.7279 117.1423)"><tspan x="0" y="0" class="st0 st1 st2">DISCOVER </tspan><tspan x="0" y="167.95" class="st0 st1 st2">BALIKPAPAN</tspan></text>
<polygon class="st3" points="419.83,88.05 404.3,32.47 335.36,32.47 368.51,76.2 399.13,112.7 "/>
<polygon class="st3" points="78.22,32.47 16.08,32.47 0.55,88.05 21.26,112.7 21.26,111.4 "/>
<polygon class="st3" points="142.9,292.57 267.13,292.57 305.95,248.64 303.37,139.87 331.84,103.64 298.19,72.58 272.31,91.93 
	142.9,91.93 117.02,61.26 88.55,106.23 106.67,147.64 106.67,248.64 "/>
<path class="st4" d="M368.51,76.2l-36.68-43.73h3.53L311.13,0.5H101.28L78.22,32.47h10.33L21.26,112.7v135.88l44,44h77.65
	l-36.23-43.93v-101c-18.12-41.41-18.12-41.41-18.12-41.41l31.06-33.65l23.29,19.35h129.41l25.88-19.35l33.65,31.06l-28.47,36.23
	l2.59,108.77l-38.82,43.93h90.59l41.41-38.82V116.58L368.51,76.2z"/>
<polygon points="173.96,220.11 249.01,220.11 264.54,171.9 249.01,145.05 173.96,145.05 155.84,171.9 "/>
<path class="st3" d="M142.9,292.57"/>
</svg>
